<?xml version="1.0" standalone="no"?>
<!DOCTYPE svg PUBLIC "-//W3C//DTD SVG 20010904//EN"
 "http://www.w3.org/TR/2001/REC-SVG-20010904/DTD/svg10.dtd">
<svg version="1.0" xmlns="http://www.w3.org/2000/svg"
 width="512.000000pt" height="512.000000pt" viewBox="0 0 512.000000 512.000000"
 preserveAspectRatio="xMidYMid meet">

<g transform="translate(0.000000,512.000000) scale(0.100000,-0.100000)"
fill="#000000" stroke="none">
<path d="M78 5099 c-23 -12 -46 -35 -58 -59 -20 -39 -20 -54 -20 -2480 0
-2427 0 -2441 20 -2480 13 -26 34 -47 60 -60 39 -20 56 -20 1185 -20 l1145 0
0 2560 0 2560 -1147 0 c-1123 -1 -1149 -1 -1185 -21z m1734 -479 c48 -14 94
-67 103 -120 9 -55 -25 -125 -75 -151 -33 -18 -68 -19 -635 -19 -567 0 -602 1
-635 19 -50 26 -84 96 -75 151 9 50 55 106 99 119 44 13 1171 14 1218 1z m36
-660 c42 -26 76 -99 68 -144 -9 -46 -41 -93 -78 -113 -31 -17 -74 -18 -633
-18 -559 0 -602 1 -633 18 -37 20 -69 67 -78 113 -8 45 26 118 68 144 32 19
48 20 643 20 595 0 611 -1 643 -20z m-1138 -1108 c19 -9 45 -32 57 -51 22 -33
23 -42 23 -241 0 -199 -1 -208 -23 -241 -61 -92 -181 -90 -251 4 -20 27 -21
41 -21 237 0 196 1 210 21 237 51 69 125 90 194 55z m1128 -1435 c37 -20 69
-67 78 -113 8 -45 -26 -118 -68 -144 -32 -19 -48 -20 -643 -20 -594 0 -611 1
-643 20 -34 21 -72 87 -72 125 0 34 37 103 64 121 15 9 41 20 59 24 17 5 293
8 612 7 538 -2 582 -3 613 -20z m2 -646 c49 -26 84 -96 75 -149 -8 -52 -56
-109 -103 -122 -50 -14 -1164 -14 -1214 0 -48 14 -94 67 -103 120 -9 55 25
125 75 151 33 18 68 19 635 19 567 0 602 -1 635 -19z"/>
<path d="M2710 2560 l0 -2560 1145 0 c1129 0 1146 0 1185 20 26 13 47 34 60
60 20 39 20 53 20 2480 0 2427 0 2441 -20 2480 -13 26 -34 47 -60 60 -39 20
-56 20 -1185 20 l-1145 0 0 -2560z m1812 2060 c48 -14 94 -67 103 -120 9 -55
-25 -125 -75 -151 -33 -18 -68 -19 -635 -19 -567 0 -602 1 -635 19 -50 26 -84
96 -75 151 9 50 55 106 99 119 44 13 1171 14 1218 1z m36 -660 c42 -26 76 -99
68 -144 -9 -46 -41 -93 -78 -113 -31 -17 -74 -18 -633 -18 -559 0 -602 1 -633
18 -37 20 -69 67 -78 113 -8 45 26 118 68 144 32 19 48 20 643 20 595 0 611
-1 643 -20z m-1138 -1108 c19 -9 45 -32 57 -51 22 -33 23 -42 23 -241 0 -199
-1 -208 -23 -241 -61 -92 -181 -90 -251 4 -20 27 -21 41 -21 237 0 196 1 210
21 237 51 69 125 90 194 55z m1128 -1435 c37 -20 69 -67 78 -113 8 -45 -26
-118 -68 -144 -32 -19 -48 -20 -643 -20 -594 0 -611 1 -643 20 -34 21 -72 87
-72 125 0 34 37 103 64 121 15 9 41 20 59 24 17 5 293 8 612 7 538 -2 582 -3
613 -20z m2 -646 c49 -26 84 -96 75 -149 -8 -52 -56 -109 -103 -122 -50 -14
-1164 -14 -1214 0 -48 14 -94 67 -103 120 -9 55 25 125 75 151 33 18 68 19
635 19 567 0 602 -1 635 -19z"/>
</g>
</svg>
